# This file uses centimeters as units for non-parametric coordinates.

mtllib manicomio.mtl
g default1
v -11.866404 0.000000 11.866404
v 11.866404 0.000000 11.866404
v -11.866404 23.732807 11.866404
v -11.866404 23.732807 -11.866404
v 11.866404 23.732807 -11.866404
v -11.866404 0.000000 -11.866404
v 11.866404 0.000000 -11.866404
v -2.668291 21.579689 -11.866404
v 2.668291 21.579689 -11.866404
v 2.668291 14.019522 -11.866404
v -2.668291 14.019522 -11.866404
v -11.866404 0.000000 -2.936128
v -11.866404 0.000000 2.936128
v -11.866404 11.866404 2.936128
v -11.866404 11.866404 -2.936128
v -11.579568 0.000000 -2.936128
v -11.579568 0.000000 2.936128
v -11.579568 11.866404 2.936128
v -11.579568 11.866404 -2.936128
v -11.579568 0.445876 -2.465257
v -11.579568 0.445876 2.465257
v -11.579568 11.420527 2.465257
v -11.579568 11.420527 -2.465257
v -11.866404 0.445876 -2.465257
v -11.866404 0.445876 2.465257
v -11.866404 11.420527 2.465257
v -11.866404 11.420527 -2.465257
v -11.866404 7.254780 -1.411864
v -11.866404 7.254780 1.411864
v -11.866404 10.242272 1.411864
v -11.866404 10.242272 -1.411864
v -11.579568 7.254780 -1.411864
v -11.579568 7.254780 1.411864
v -11.579568 10.242272 1.411864
v -11.579568 10.242272 -1.411864
v -11.579568 7.654780 -1.011864
v -11.579568 7.654780 1.011864
v -11.579568 9.842274 1.011864
v -11.579568 9.842274 -1.011864
v -11.866404 7.654780 -1.011864
v -11.866404 7.654780 1.011864
v -11.866404 9.842274 1.011864
v -11.866404 9.842274 -1.011864
v -2.068291 20.979687 -11.448860
v 2.068291 20.979687 -11.448860
v 2.068291 14.619522 -11.448860
v -2.068291 14.619522 -11.448860
v -1.768291 20.679688 -11.448860
v 1.768291 20.679688 -11.448860
v 1.768291 14.919520 -11.448860
v -1.768291 14.919520 -11.448860
v -11.579568 10.242272 0.000000
v -11.579568 7.254780 0.000000
v 0.000000 20.979687 -11.448860
v 0.088406 20.679688 -11.448860
v -0.088406 20.679688 -11.448860
v 0.000000 14.619522 -11.448860
v -0.088406 14.919520 -11.448860
v 0.088406 14.919520 -11.448860
v 2.068291 17.799599 -11.448860
v 1.768291 17.711197 -11.448860
v 1.768291 17.888008 -11.448860
v -2.068291 17.799599 -11.448860
v -1.768291 17.888008 -11.448860
v -1.768291 17.711197 -11.448860
v 0.088406 17.711197 -11.448860
v 0.088406 17.888008 -11.448860
v -0.088406 17.888008 -11.448860
v -0.088406 17.711197 -11.448860
v -11.579568 9.842274 0.087214
v -11.579568 9.842274 -0.087214
v -11.866404 9.842274 -0.087214
v -11.866404 9.842274 0.087214
v -11.579568 9.842274 -0.593146
v -11.579568 9.842274 -0.418718
v -11.866404 9.842274 -0.593146
v -11.866404 9.842274 -0.418718
v -11.579568 9.842274 0.418718
v -11.579568 9.842274 0.593146
v -11.866404 9.842274 0.418718
v -11.866404 9.842274 0.593146
v -11.579568 7.654780 -0.087214
v -11.579568 7.654780 0.087214
v -11.866404 7.654780 0.087214
v -11.866404 7.654780 -0.087214
v -11.579568 7.654780 -0.418718
v -11.579568 7.654780 -0.593146
v -11.866404 7.654780 -0.418718
v -11.866404 7.654780 -0.593146
v -11.579568 7.654780 0.593146
v -11.579568 7.654780 0.418718
v -11.866404 7.654780 0.593146
v -11.866404 7.654780 0.418718
v -1.568291 20.479687 -11.866404
v -0.288406 20.479687 -11.866404
v 1.568291 20.479687 -11.866404
v 1.568291 18.088009 -11.866404
v -1.568291 15.119520 -11.866404
v -0.288406 15.119520 -11.866404
v -1.568291 18.088009 -11.866404
v 0.288406 20.479687 -11.866404
v 0.288406 15.119520 -11.866404
v 1.568291 15.119520 -11.866404
v 1.568291 17.511196 -11.866404
v -1.568291 17.511196 -11.866404
v 0.288406 17.511196 -11.866404
v 0.288406 18.088009 -11.866404
v -0.288406 18.088009 -11.866404
v -0.288406 17.511196 -11.866404
vt 0.682871 0.667030
vt 0.779030 0.666251
vt 0.775255 0.518294
vt 0.679097 0.519072
vt 0.688841 0.661684
vt 0.773523 0.660330
vt 0.769286 0.523639
vt 0.684603 0.524995
vt 0.731156 0.667875
vt 0.733213 0.661497
vt 0.729373 0.661459
vt 0.726970 0.517450
vt 0.724913 0.523827
vt 0.728753 0.523864
vt 0.778202 0.592061
vt 0.771791 0.589742
vt 0.771936 0.594034
vt 0.679925 0.593263
vt 0.686338 0.595582
vt 0.686191 0.591290
vt 0.731131 0.590293
vt 0.731321 0.595043
vt 0.726997 0.595030
vt 0.726809 0.590280
vt 0.695098 0.655499
vt 0.722525 0.655013
vt 0.767171 0.654087
vt 0.765713 0.601040
vt 0.690955 0.531237
vt 0.718335 0.530469
vt 0.693071 0.602510
vt 0.739790 0.654855
vt 0.735601 0.530311
vt 0.763028 0.529825
vt 0.765057 0.582814
vt 0.692415 0.584283
vt 0.737630 0.583338
vt 0.738298 0.601814
vt 0.720496 0.601986
vt 0.719830 0.583509
vt 0.304014 0.795972
vt 0.193130 0.795972
vt 0.001992 0.504693
vt 0.495152 0.504693
vt 0.304007 0.953054
vt 0.495115 0.997805
vt 0.193137 0.953055
vt 0.002028 0.997806
vt 0.791036 0.504204
vt 0.793321 0.681981
vt 0.667090 0.681120
vt 0.664805 0.503344
vt 0.001992 0.495063
vt 0.003530 0.001992
vt 0.496074 0.189026
vt 0.495686 0.311071
vt 0.495092 0.496633
vt 0.496626 0.003460
vt 0.504889 0.002728
vt 0.690442 0.002728
vt 0.690442 0.249288
vt 0.998008 0.002728
vt 0.998008 0.495848
vt 0.812455 0.249288
vt 0.504889 0.495848
vt 0.812455 0.002728
vt 0.636472 0.516696
vt 0.613599 0.675924
vt 0.544663 0.675588
vt 0.523348 0.516144
vt 0.635477 0.772218
vt 0.613250 0.750052
vt 0.544281 0.749717
vt 0.521839 0.771664
vt 0.639557 0.513689
vt 0.520291 0.513106
vt 0.638072 0.775197
vt 0.519215 0.774618
vt 0.647513 0.782097
vt 0.509706 0.781421
vt 0.591568 0.741654
vt 0.589287 0.741774
vt 0.590306 0.687474
vt 0.592419 0.687540
vt 0.610814 0.747202
vt 0.587032 0.738846
vt 0.587278 0.690275
vt 0.610719 0.678775
vt 0.594322 0.738741
vt 0.595591 0.690556
vt 0.604128 0.741291
vt 0.578777 0.747309
vt 0.579646 0.740933
vt 0.582459 0.738281
vt 0.582633 0.689958
vt 0.580132 0.687116
vt 0.579115 0.679160
vt 0.604905 0.686916
vt 0.601015 0.738321
vt 0.602178 0.689909
vt 0.577968 0.740924
vt 0.578022 0.687107
vt 0.546742 0.746891
vt 0.568309 0.741657
vt 0.567884 0.687368
vt 0.547514 0.678467
vt 0.575181 0.738245
vt 0.575493 0.689923
vt 0.566045 0.741526
vt 0.570604 0.738765
vt 0.570846 0.690196
vt 0.565730 0.687419
vt 0.553485 0.741045
vt 0.553255 0.686662
vt 0.556624 0.738104
vt 0.563314 0.738587
vt 0.562533 0.690392
vt 0.555952 0.689685
vt 0.509965 0.503354
vt 0.649978 0.504038
vt 0.657149 0.504986
vt 0.648470 0.787347
vt 0.508699 0.786662
vt 0.502785 0.504231
vn 0.000000 0.000000 1.000000
vn 0.000000 0.000000 1.000000
vn 0.000000 0.000000 1.000000
vn 0.000000 0.000000 1.000000
vn 0.000000 0.000000 1.000000
vn 0.000000 0.000000 1.000000
vn 0.000000 0.000000 1.000000
vn 0.000000 0.000000 1.000000
vn 0.000000 0.000000 1.000000
vn 0.000000 0.000000 1.000000
vn 0.000000 0.000000 1.000000
vn 0.000000 0.000000 1.000000
vn 0.000000 0.000000 1.000000
vn 0.000000 0.000000 1.000000
vn 0.000000 0.000000 1.000000
vn 0.000000 0.000000 1.000000
vn 0.000000 1.000000 0.000000
vn 0.000000 1.000000 0.000000
vn 0.000000 1.000000 0.000000
vn 0.000000 1.000000 0.000000
vn 0.000000 1.000000 0.000000
vn 0.000000 1.000000 0.000000
vn 0.000000 1.000000 0.000000
vn 0.000000 1.000000 0.000000
vn 0.000000 1.000000 0.000000
vn 0.000000 1.000000 0.000000
vn 0.000000 1.000000 0.000000
vn 0.000000 1.000000 0.000000
vn 1.000000 0.000000 0.000000
vn 1.000000 0.000000 0.000000
vn 1.000000 0.000000 0.000000
vn 1.000000 0.000000 0.000000
vn 1.000000 0.000000 0.000000
vn 1.000000 0.000000 0.000000
vn 1.000000 0.000000 0.000000
vn 1.000000 0.000000 0.000000
vn 1.000000 0.000000 0.000000
vn 1.000000 0.000000 0.000000
vn 1.000000 0.000000 0.000000
vn 1.000000 0.000000 0.000000
vn 1.000000 0.000000 0.000000
vn 1.000000 0.000000 0.000000
vn 1.000000 0.000000 0.000000
vn 1.000000 0.000000 0.000000
vn 1.000000 0.000000 0.000000
vn 1.000000 0.000000 0.000000
vn 0.000000 0.000000 1.000000
vn 0.000000 0.000000 1.000000
vn 0.000000 0.000000 1.000000
vn 0.000000 0.000000 1.000000
vn 0.000000 1.000000 0.000000
vn 0.000000 1.000000 0.000000
vn 0.000000 1.000000 0.000000
vn 0.000000 1.000000 0.000000
vn 0.000000 0.000000 -1.000000
vn 0.000000 0.000000 -1.000000
vn 0.000000 0.000000 -1.000000
vn 0.000000 0.000000 -1.000000
vn 1.000000 0.000000 0.000000
vn 1.000000 0.000000 0.000000
vn 1.000000 0.000000 0.000000
vn 1.000000 0.000000 0.000000
vn 1.000000 0.000000 0.000000
vn 1.000000 0.000000 0.000000
vn 1.000000 0.000000 0.000000
vn 1.000000 0.000000 0.000000
vn 1.000000 0.000000 0.000000
vn 1.000000 0.000000 0.000000
vn 1.000000 0.000000 0.000000
vn 1.000000 0.000000 0.000000
vn 1.000000 0.000000 0.000000
vn 1.000000 0.000000 0.000000
vn 1.000000 0.000000 0.000000
vn 1.000000 0.000000 0.000000
vn 0.000000 1.000000 0.000000
vn 0.000000 1.000000 0.000000
vn 0.000000 1.000000 0.000000
vn 0.000000 1.000000 0.000000
vn 0.000000 0.000000 -1.000000
vn 0.000000 0.000000 -1.000000
vn 0.000000 0.000000 -1.000000
vn 0.000000 0.000000 -1.000000
vn 0.000000 -1.000000 0.000000
vn 0.000000 -1.000000 0.000000
vn 0.000000 -1.000000 0.000000
vn 0.000000 -1.000000 0.000000
vn 0.000000 0.000000 1.000000
vn 0.000000 0.000000 1.000000
vn 0.000000 0.000000 1.000000
vn 0.000000 0.000000 1.000000
vn 1.000000 -0.000000 0.000000
vn 1.000000 -0.000000 0.000000
vn 1.000000 -0.000000 0.000000
vn 1.000000 -0.000000 0.000000
vn 1.000000 0.000000 0.000000
vn 1.000000 0.000000 0.000000
vn 1.000000 0.000000 0.000000
vn 1.000000 0.000000 0.000000
vn 1.000000 0.000001 0.000000
vn 1.000000 0.000001 0.000000
vn 1.000000 0.000001 0.000000
vn 1.000000 0.000001 0.000000
vn 1.000000 0.000000 0.000000
vn 1.000000 0.000000 0.000000
vn 1.000000 0.000000 0.000000
vn 1.000000 0.000000 0.000000
vn 0.000000 -1.000000 0.000000
vn 0.000000 -1.000000 0.000000
vn 0.000000 -1.000000 0.000000
vn 0.000000 -1.000000 0.000000
vn 0.000000 -1.000000 0.000000
vn 0.000000 -1.000000 0.000000
vn 0.000000 -1.000000 0.000000
vn 0.000000 -1.000000 0.000000
vn 0.000000 -1.000000 0.000000
vn 0.000000 0.000000 1.000000
vn 0.000000 0.000000 1.000000
vn 0.000000 0.000000 1.000000
vn 0.000000 0.000000 1.000000
vn 0.000000 1.000000 0.000000
vn 0.000000 1.000000 0.000000
vn 0.000000 1.000000 0.000000
vn 0.000000 1.000000 0.000000
vn 0.000000 1.000000 0.000000
vn 0.000000 1.000000 0.000000
vn 0.000000 1.000000 0.000000
vn 0.000000 1.000000 0.000000
vn 0.000000 1.000000 0.000000
vn 0.000000 0.000000 -1.000000
vn 0.000000 0.000000 -1.000000
vn 0.000000 0.000000 -1.000000
vn 0.000000 0.000000 -1.000000
vn 1.000000 0.000006 0.000000
vn 1.000000 0.000006 0.000000
vn 1.000000 0.000006 0.000000
vn 1.000000 0.000000 0.000000
vn 1.000000 0.000000 0.000000
vn 1.000000 0.000000 0.000000
vn 1.000000 0.000000 0.000000
vn 1.000000 -0.000006 0.000000
vn 1.000000 -0.000006 0.000000
vn 1.000000 -0.000006 0.000000
vn 1.000000 0.000000 0.000000
vn 1.000000 0.000000 0.000000
vn 1.000000 0.000000 0.000000
vn 1.000000 0.000000 0.000000
vn 0.000000 1.000000 0.000000
vn 0.000000 1.000000 0.000000
vn 0.000000 1.000000 0.000000
vn 0.000000 1.000000 0.000000
vn 0.000000 0.000000 -1.000000
vn 0.000000 0.000000 -1.000000
vn 0.000000 0.000000 -1.000000
vn 0.000000 0.000000 -1.000000
vn 0.000000 -1.000000 0.000000
vn 0.000000 -1.000000 0.000000
vn 0.000000 -1.000000 0.000000
vn 0.000000 -1.000000 0.000000
vn 0.000000 0.000000 1.000000
vn 0.000000 0.000000 1.000000
vn 0.000000 0.000000 1.000000
vn 0.000000 0.000000 1.000000
vn 0.000000 0.571202 0.820810
vn 0.000000 0.571202 0.820810
vn 0.000000 0.571202 0.820810
vn 0.571205 0.000000 0.820808
vn 0.571205 0.000000 0.820808
vn 0.571205 0.000000 0.820808
vn 0.000000 -0.571204 0.820808
vn 0.000000 -0.571204 0.820808
vn 0.000000 -0.571204 0.820808
vn -0.571206 0.000000 0.820807
vn -0.571206 0.000000 0.820807
vn -0.571206 0.000000 0.820807
vn 0.000000 0.000000 1.000000
vn 0.000000 0.000000 1.000000
vn 0.000000 0.000000 1.000000
vn 0.000000 0.000000 1.000000
vn 0.000000 0.000000 1.000000
vn 0.000000 0.000000 1.000000
vn 0.000000 0.000000 1.000000
vn 0.000000 0.000000 1.000000
vn 0.000000 0.000000 1.000000
vn 0.000000 0.000000 1.000000
vn 0.000000 0.000000 1.000000
vn 0.000000 0.000000 1.000000
vn 0.000000 0.000000 1.000000
vn 0.000000 0.000000 1.000000
vn 0.000000 0.000000 1.000000
vn 0.000000 0.000000 1.000000
vn 1.000000 0.000000 0.000000
vn 1.000000 0.000000 0.000000
vn 1.000000 0.000000 0.000000
vn 1.000000 0.000000 0.000000
vn 0.000000 -1.000000 0.000000
vn 0.000000 -1.000000 0.000000
vn 0.000000 -1.000000 0.000000
vn 0.000000 -1.000000 0.000000
vn 1.000000 0.000000 0.000000
vn 1.000000 0.000000 0.000000
vn 1.000000 0.000000 0.000000
vn 1.000000 0.000000 0.000000
vn 0.000000 -1.000000 0.000000
vn 0.000000 -1.000000 0.000000
vn 0.000000 -1.000000 0.000000
vn 0.000000 -1.000000 0.000000
vn 1.000000 0.000000 0.000000
vn 1.000000 0.000000 0.000000
vn 1.000000 0.000000 0.000000
vn 0.000000 -1.000000 0.000000
vn 0.000000 -1.000000 0.000000
vn 0.000000 -1.000000 0.000000
vn 0.000000 -1.000000 0.000000
vn 1.000000 0.000000 0.000000
vn 1.000000 0.000000 0.000000
vn 1.000000 0.000000 0.000000
vn 1.000000 0.000000 0.000000
vn 0.000000 1.000000 0.000000
vn 0.000000 1.000000 0.000000
vn 0.000000 1.000000 0.000000
vn 0.000000 1.000000 0.000000
vn 1.000000 0.000000 0.000000
vn 1.000000 0.000000 0.000000
vn 1.000000 0.000000 0.000000
vn 0.000000 1.000000 0.000000
vn 0.000000 1.000000 0.000000
vn 0.000000 1.000000 0.000000
vn 0.000000 1.000000 0.000000
vn 1.000000 0.000000 0.000000
vn 1.000000 0.000000 0.000000
vn 1.000000 0.000000 0.000000
vn 1.000000 0.000000 0.000000
vn 0.000000 1.000000 0.000000
vn 0.000000 1.000000 0.000000
vn 0.000000 1.000000 0.000000
vn 0.000000 1.000000 0.000000
vn 0.000000 0.571204 0.820808
vn 0.000000 0.571204 0.820808
vn 0.000000 0.571204 0.820808
vn 0.000000 0.571204 0.820808
vn 0.000000 0.000000 1.000000
vn 0.000000 0.000000 1.000000
vn 0.000000 0.000000 1.000000
vn 0.000000 0.000000 1.000000
vn 0.000000 -0.571204 0.820808
vn 0.000000 -0.571204 0.820808
vn 0.000000 -0.571204 0.820808
vn 0.000000 -0.571204 0.820808
vn 0.000000 0.000000 1.000000
vn 0.000000 0.000000 1.000000
vn 0.000000 0.000000 1.000000
vn 0.000000 0.000000 1.000000
vn 0.571205 0.000000 0.820807
vn 0.571205 0.000000 0.820807
vn 0.571205 0.000000 0.820807
vn 0.571205 0.000000 0.820807
vn 0.000000 0.000000 1.000000
vn 0.000000 0.000000 1.000000
vn 0.000000 0.000000 1.000000
vn 0.000000 0.000000 1.000000
vn -0.571204 0.000000 0.820808
vn -0.571204 0.000000 0.820808
vn -0.571204 0.000000 0.820808
vn -0.571204 0.000000 0.820808
vn 0.000000 0.000000 1.000000
vn 0.000000 0.000000 1.000000
vn 0.000000 0.000000 1.000000
vn 0.000000 0.000000 1.000000
vn 0.000000 0.000000 1.000000
vn 0.000000 0.000000 1.000000
vn 0.000000 0.000000 1.000000
vn 0.000000 0.000000 1.000000
vn 0.000000 0.000000 1.000000
vn 0.000000 0.000000 1.000000
vn -0.000004 0.000000 1.000000
vn -0.000004 0.000000 1.000000
vn -0.000004 0.000000 1.000000
vn 0.000004 0.000000 1.000000
vn 0.000004 0.000000 1.000000
vn 0.000004 0.000000 1.000000
vn 0.000000 0.000000 1.000000
vn 0.000000 0.000000 1.000000
vn 0.000000 0.000000 1.000000
vn 0.000000 0.000000 1.000000
vn 0.000000 0.000000 1.000000
vn 0.000000 0.000000 1.000000
vn 0.000000 0.000000 1.000000
vn 0.000000 0.000000 1.000000
vn 0.000000 0.000000 1.000000
vn 0.000000 0.000000 1.000000
vn 0.000000 0.000000 1.000000
vn 0.000000 0.000000 1.000000
vn 0.000000 0.000000 1.000000
vn 0.000000 0.000000 1.000000
vn 0.000000 0.000000 1.000000
vn 0.000000 0.000000 1.000000
vn 0.000000 0.000000 1.000000
vn 0.000000 0.000000 1.000000
vn 0.000000 0.000000 1.000000
vn 0.000000 0.000000 1.000000
vn 1.000000 0.000000 0.000000
vn 1.000000 0.000000 0.000000
vn 1.000000 0.000000 0.000000
vn 1.000000 0.000007 0.000000
vn 1.000000 0.000007 0.000000
vn 1.000000 0.000007 0.000000
vn 1.000000 0.000007 0.000000
vn 1.000000 0.000007 0.000000
vn 1.000000 0.000007 0.000000
vn 1.000000 0.000000 0.000000
vn 1.000000 0.000000 0.000000
vn 1.000000 0.000000 0.000000
vn 1.000000 -0.000007 0.000000
vn 1.000000 -0.000007 0.000000
vn 1.000000 -0.000007 0.000000
vn 1.000000 -0.000007 0.000000
vn 1.000000 -0.000007 0.000000
vn 1.000000 -0.000007 0.000000
vn 0.000000 0.000000 -1.000000
vn 0.000000 0.000000 -1.000000
vn 0.000000 0.000000 -1.000000
vn 0.000000 0.000000 -1.000000
vn 1.000000 0.000000 0.000000
vn 1.000000 0.000000 0.000000
vn 1.000000 0.000000 0.000000
vn 1.000000 0.000000 0.000000
vn 0.000000 0.000000 1.000000
vn 0.000000 0.000000 1.000000
vn 0.000000 0.000000 1.000000
vn 0.000000 0.000000 1.000000
vn 0.000000 0.000000 -1.000000
vn 0.000000 0.000000 -1.000000
vn 0.000000 0.000000 -1.000000
vn 0.000000 0.000000 -1.000000
vn 1.000000 0.000000 0.000000
vn 1.000000 0.000000 0.000000
vn 1.000000 0.000000 0.000000
vn 1.000000 0.000000 0.000000
vn 0.000000 0.000000 1.000000
vn 0.000000 0.000000 1.000000
vn 0.000000 0.000000 1.000000
vn 0.000000 0.000000 1.000000
vn 0.000000 0.000000 -1.000000
vn 0.000000 0.000000 -1.000000
vn 0.000000 0.000000 -1.000000
vn 0.000000 0.000000 -1.000000
vn 1.000000 0.000000 0.000000
vn 1.000000 0.000000 0.000000
vn 1.000000 0.000000 0.000000
vn 1.000000 0.000000 0.000000
vn 0.000000 0.000000 1.000000
vn 0.000000 0.000000 1.000000
vn 0.000000 0.000000 1.000000
vn 0.000000 0.000000 1.000000
vn 0.000000 -0.901877 0.431993
vn 0.000000 -0.901877 0.431993
vn 0.000000 -0.901877 0.431993
vn 0.000000 -0.901877 0.431993
vn -0.901878 0.000000 0.431992
vn -0.901878 0.000000 0.431992
vn -0.901878 0.000000 0.431992
vn -0.901878 0.000000 0.431992
vn 0.000000 0.901876 0.431994
vn 0.000000 0.901876 0.431994
vn 0.000000 0.901876 0.431994
vn 0.000000 0.901876 0.431994
vn 0.901878 0.000000 0.431992
vn 0.901878 0.000000 0.431992
vn 0.901878 0.000000 0.431992
vn 0.901878 0.000000 0.431992
vn 0.000000 -0.901877 0.431994
vn 0.000000 -0.901877 0.431994
vn 0.000000 -0.901877 0.431994
vn 0.000000 -0.901877 0.431994
vn 0.000000 0.901877 0.431993
vn 0.000000 0.901877 0.431993
vn 0.000000 0.901877 0.431993
vn 0.000000 0.901877 0.431993
vn -0.901877 0.000000 0.431992
vn -0.901877 0.000000 0.431992
vn -0.901877 0.000000 0.431992
vn -0.901877 0.000000 0.431992
vn 0.901877 0.000000 0.431992
vn 0.901877 0.000000 0.431992
vn 0.901877 0.000000 0.431992
vn 0.901877 0.000000 0.431992
vn 0.000000 -0.901878 0.431991
vn 0.000000 -0.901878 0.431991
vn 0.000000 -0.901878 0.431991
vn 0.000000 -0.901878 0.431991
vn 0.000000 0.901876 0.431994
vn 0.000000 0.901876 0.431994
vn 0.000000 0.901876 0.431995
vn 0.000000 0.901876 0.431995
vn 0.000000 0.901877 0.431994
vn 0.000000 0.901877 0.431994
vn 0.000000 0.901877 0.431994
vn 0.000000 0.901877 0.431994
vn 0.000000 -0.901877 0.431992
vn 0.000000 -0.901877 0.431992
vn 0.000000 -0.901877 0.431992
vn 0.000000 -0.901877 0.431992
vn -0.901878 0.000000 0.431992
vn -0.901877 0.000000 0.431992
vn -0.901877 0.000000 0.431992
vn -0.901877 0.000000 0.431992
vn 0.901877 -0.000000 0.431992
vn 0.901878 -0.000000 0.431992
vn 0.901877 -0.000000 0.431992
vn 0.901877 -0.000000 0.431992
vn 0.901878 0.000000 0.431992
vn 0.901878 0.000000 0.431992
vn 0.901878 0.000000 0.431992
vn 0.901878 0.000000 0.431992
vn -0.901878 0.000000 0.431992
vn -0.901878 0.000000 0.431992
vn -0.901878 0.000000 0.431992
vn -0.901878 0.000000 0.431992
vn 0.000000 0.000000 1.000000
vn 0.000000 0.000000 1.000000
vn 0.000000 0.000000 1.000000
vn 0.000000 0.000000 1.000000
vn 0.000000 0.000000 1.000000
vn 0.000000 0.000000 1.000000
vn 0.000000 0.000000 1.000000
vn 0.000000 0.000000 1.000000
vn 0.000000 0.000000 1.000000
vn 0.000000 0.000000 1.000000
vn 0.000000 0.000000 1.000000
vn 0.000000 0.000000 1.000000
vn 0.000000 0.000000 1.000000
vn 0.000000 0.000000 1.000000
vn 0.000000 0.000000 1.000000
vn 0.000000 0.000000 1.000000
vn 1.000000 0.000000 0.000000
vn 1.000000 0.000000 0.000000
vn 1.000000 0.000000 0.000000
vn 1.000000 0.000000 0.000000
vn 1.000000 0.000000 0.000000
vn 1.000000 0.000000 0.000000
vn 1.000000 0.000000 0.000000
vn 1.000000 0.000000 0.000000
vn 1.000000 0.000000 0.000000
vn 1.000000 0.000000 0.000000
vn 1.000000 0.000000 0.000000
vn 1.000000 0.000000 0.000000
vn 1.000000 0.000000 0.000000
vn 1.000000 0.000000 0.000000
vn 1.000000 0.000000 0.000000
vn 1.000000 0.000000 0.000000
s off
g polySurface3 polySurface4 polySurface5 polySurface1
usemtl lambert2SG
f 4/48/1 8/47/2 9/45/3 5/46/4
f 5/46/5 9/45/6 10/41/7 7/44/8
f 7/44/9 10/41/10 11/42/11 6/43/12
f 6/43/13 11/42/14 8/47/15 4/48/16
f 1/57/17 2/53/18 13/56/19
f 2/53/20 7/54/21 13/56/22
f 13/56/23 7/54/24 12/55/25
f 12/55/26 7/54/27 6/58/28
f 1/59/29 13/60/30 14/61/31
f 6/62/32 4/63/33 15/64/34
f 4/63/35 3/65/36 15/64/37
f 15/64/38 3/65/39 14/61/40
f 14/61/41 3/65/42 1/59/43
f 6/62/44 15/64/45 12/66/46
f 13/124/47 17/119/48 18/80/49 14/123/50
f 14/123/51 18/80/52 19/79/53 15/122/54
f 15/122/55 19/79/56 16/120/57 12/121/58
f 16/120/59 20/75/60 21/76/61 17/119/62
f 17/119/63 21/76/64 22/78/65 18/80/66
f 18/80/67 22/78/68 23/77/69 19/79/70
f 19/79/71 23/77/72 20/75/73 16/120/74
f 20/75/75 24/67/76 25/70/77 21/76/78
f 21/76/79 25/70/80 26/74/81 22/78/82
f 22/78/83 26/74/84 27/71/85 23/77/86
f 23/77/87 27/71/88 24/67/89 20/75/90
f 24/67/91 28/68/92 29/69/93 25/70/94
f 25/70/95 29/69/96 30/73/97 26/74/98
f 26/74/99 30/73/100 31/72/101 27/71/102
f 27/71/103 31/72/104 28/68/105 24/67/106
f 33/106/107 29/69/108 53/97/109
f 29/69/110 28/68/111 53/97/112
f 28/68/113 32/88/114 53/97/115
f 29/69/116 33/106/117 34/103/118 30/73/119
f 34/103/120 52/92/121 30/73/122
f 30/73/123 52/92/124 31/72/125
f 52/92/126 35/85/127 31/72/128
f 31/72/129 35/85/130 32/88/131 28/68/132
f 33/106/133 90/112/134 37/114/135
f 33/106/136 37/114/137 38/113/138 34/103/139
f 35/85/140 74/81/141 39/91/142
f 35/85/143 39/91/144 36/98/145 32/88/146
f 90/112/147 92/117/148 41/118/149 37/114/150
f 37/114/151 41/118/152 42/115/153 38/113/154
f 74/81/155 76/89/156 43/99/157 39/91/158
f 39/91/159 43/99/160 40/100/161 36/98/162
f 9/50/163 54/9/164 45/2/165
f 10/49/166 60/15/167 46/3/168
f 11/52/169 57/12/170 47/4/171
f 8/51/172 63/18/173 44/1/174
f 54/9/175 55/10/176 49/6/177 45/2/178
f 60/15/179 61/16/180 50/7/181 46/3/182
f 57/12/183 58/13/184 51/8/185 47/4/186
f 63/18/187 64/19/188 48/5/189 44/1/190
f 34/103/191 78/104/192 70/101/193 52/92/194
f 78/104/195 80/110/196 73/107/197 70/101/198
f 52/92/199 71/93/200 75/82/201 35/85/202
f 71/93/203 72/94/204 77/86/205 75/82/206
f 34/103/207 38/113/208 79/109/209
f 38/113/210 42/115/211 81/116/212 79/109/213
f 32/88/214 86/83/215 82/96/216 53/97/217
f 86/83/218 88/87/219 85/95/220 82/96/221
f 32/88/222 36/98/223 87/84/224
f 36/98/225 40/100/226 89/90/227 87/84/228
f 53/97/229 83/102/230 91/105/231 33/106/232
f 83/102/233 84/108/234 93/111/235 91/105/236
f 8/51/237 44/1/238 54/9/239 9/50/240
f 44/1/241 48/5/242 56/11/243 54/9/244
f 10/49/245 46/3/246 57/12/247 11/52/248
f 46/3/249 50/7/250 59/14/251 57/12/252
f 9/50/253 45/2/254 60/15/255 10/49/256
f 45/2/257 49/6/258 62/17/259 60/15/260
f 11/52/261 47/4/262 63/18/263 8/51/264
f 47/4/265 51/8/266 65/20/267 63/18/268
f 54/9/269 56/11/270 55/10/271
f 57/12/272 59/14/273 58/13/274
f 60/15/275 62/17/276 61/16/277
f 63/18/278 65/20/279 64/19/280
f 66/21/281 69/24/282 58/13/283 59/14/284
f 69/24/285 68/23/286 64/19/287 65/20/288
f 55/10/289 56/11/290 68/23/291 67/22/292
f 67/22/293 66/21/294 61/16/295 62/17/296
f 67/22/297 68/23/298 69/24/299 66/21/300
f 70/101/301 71/93/302 52/92/303
f 74/81/304 35/85/305 75/82/306
f 78/104/307 34/103/308 79/109/309
f 82/96/310 83/102/311 53/97/312
f 86/83/313 32/88/314 87/84/315
f 90/112/316 33/106/317 91/105/318
f 72/94/319 71/93/320 82/96/321 85/95/322
f 71/93/323 70/101/324 83/102/325 82/96/326
f 70/101/327 73/107/328 84/108/329 83/102/330
f 80/110/331 78/104/332 91/105/333 93/111/334
f 78/104/335 79/109/336 90/112/337 91/105/338
f 79/109/339 81/116/340 92/117/341 90/112/342
f 76/89/343 74/81/344 87/84/345 89/90/346
f 74/81/347 75/82/348 86/83/349 87/84/350
f 75/82/351 77/86/352 88/87/353 86/83/354
f 56/11/355 48/5/356 94/25/357 95/26/358
f 62/17/359 49/6/360 96/27/361 97/28/362
f 51/8/363 58/13/364 99/30/365 98/29/366
f 48/5/367 64/19/368 100/31/369 94/25/370
f 49/6/371 55/10/372 101/32/373 96/27/374
f 59/14/375 50/7/376 103/34/377 102/33/378
f 50/7/379 61/16/380 104/35/381 103/34/382
f 65/20/383 51/8/384 98/29/385 105/36/386
f 61/16/387 66/21/388 106/37/389 104/35/390
f 67/22/391 62/17/392 97/28/393 107/38/394
f 64/19/395 68/23/396 108/39/397 100/31/398
f 69/24/399 65/20/400 105/36/401 109/40/402
f 58/13/403 69/24/404 109/40/405 99/30/406
f 66/21/407 59/14/408 102/33/409 106/37/410
f 55/10/411 67/22/412 107/38/413 101/32/414
f 68/23/415 56/11/416 95/26/417 108/39/418
f 99/30/419 109/40/420 105/36/421 98/29/422
f 103/34/423 104/35/424 106/37/425 102/33/426
f 95/26/427 94/25/428 100/31/429 108/39/430
f 97/28/431 96/27/432 101/32/433 107/38/434
f 89/90/435 40/100/436 43/99/437 76/89/438
f 77/86/439 72/94/440 85/95/441 88/87/442
f 73/107/443 80/110/444 93/111/445 84/108/446
f 42/115/447 41/118/448 92/117/449 81/116/450
